<svg width="38" height="38" viewBox="0 0 38 38" fill="none" xmlns="http://www.w3.org/2000/svg">
<g clip-path="url(#clip0_10_1194)">
<path fill-rule="evenodd" clip-rule="evenodd" d="M17.4167 20.5833C17.4167 21.4578 18.1256 22.1666 19.0001 22.1666C19.8746 22.1666 20.5834 21.4578 20.5834 20.5833V12.6666C20.5834 11.7922 19.8746 11.0833 19.0001 11.0833C18.1256 11.0833 17.4167 11.7922 17.4167 12.6666V20.5833ZM20.5834 25.3156C20.5834 24.4411 19.8746 23.7322 19.0001 23.7322C18.1256 23.7322 17.4167 24.4411 17.4167 25.3156V25.3333C17.4167 26.2078 18.1256 26.9166 19.0001 26.9166C19.8746 26.9166 20.5834 26.2078 20.5834 25.3333V25.3156ZM11.4794 3.78067C13.5356 3.32369 16.0302 3.16663 19.0001 3.16663C21.9699 3.16663 24.4645 3.32369 26.5208 3.78067C28.5951 4.24166 30.319 5.02863 31.6452 6.35479C32.9714 7.68096 33.7583 9.40499 34.2194 11.4792C34.6763 13.5355 34.8334 16.0301 34.8334 19C34.8334 21.9698 34.6763 24.4644 34.2194 26.5206C33.7583 28.595 32.9714 30.3189 31.6452 31.6451C30.319 32.9713 28.5951 33.7582 26.5208 34.2193C24.4645 34.6762 21.9699 34.8333 19.0001 34.8333C16.0302 34.8333 13.5356 34.6762 11.4794 34.2193C9.40511 33.7582 7.68108 32.9713 6.35492 31.6451C5.02875 30.3189 4.24178 28.595 3.7808 26.5206C3.32381 24.4644 3.16675 21.9698 3.16675 19C3.16675 16.0301 3.32381 13.5355 3.7808 11.4792C4.24178 9.40499 5.02875 7.68096 6.35492 6.35479C7.68108 5.02863 9.40511 4.24166 11.4794 3.78067Z" fill="#F8B400"/>
</g>
<defs>
<clipPath id="clip0_10_1194">
<rect width="38" height="38" fill="white"/>
</clipPath>
</defs>
</svg>
