<svg xmlns="http://www.w3.org/2000/svg" viewBox="0 0 24 24" fill="none" style="color: rgba(255, 255, 255, 0.5);"> <path d="M2.68651 10.8099C7.76808 3.13219 18.265 5.82205 21.3852 10.7218C21.8622 11.4708 21.7483 12.4315 21.2276 13.1508C15.4008 21.2011 5.6432 17.8081 2.61613 13.1704C2.14733 12.4521 2.21312 11.5252 2.68651 10.8099Z" stroke="currentColor" stroke-width="1.5" stroke-linejoin="round"/> <path d="M14 9.73972C13.4692 9.26468 12.7684 8.97583 12 8.97583C10.3431 8.97583 9 10.319 9 11.9758C9 12.8643 9.38625 13.6626 10 14.2119M14 9.73972C14.6137 10.289 15 11.0873 15 11.9758C15 13.6327 13.6569 14.9758 12 14.9758C11.2316 14.9758 10.5308 14.687 10 14.2119M14 9.73972L10 14.2119" stroke="currentColor" stroke-width="1.5" stroke-linejoin="round"/> </svg>