<svg width="18" height="18" viewBox="0 0 18 18" fill="none" xmlns="http://www.w3.org/2000/svg">
<path d="M1.84825 7.00781C1.66185 7.00781 1.49175 6.85672 1.50031 6.65921C1.5505 5.50265 1.69111 4.74973 2.08506 4.15413C2.31171 3.81147 2.59324 3.51344 2.91693 3.27351C3.79182 2.625 5.02604 2.625 7.4945 2.625H10.5056C12.974 2.625 14.2082 2.625 15.0831 3.27351C15.4068 3.51344 15.6883 3.81147 15.9149 4.15413C16.3089 4.74967 16.4495 5.50249 16.4997 6.65882C16.5083 6.85656 16.3379 7.00781 16.1513 7.00781C15.112 7.00781 14.2694 7.89975 14.2694 9C14.2694 10.1003 15.112 10.9922 16.1513 10.9922C16.3379 10.9922 16.5083 11.1434 16.4997 11.3412C16.4495 12.4976 16.3089 13.2503 15.9149 13.8459C15.6883 14.1885 15.4068 14.4865 15.0831 14.7265C14.2082 15.375 12.974 15.375 10.5056 15.375H7.4945C5.02604 15.375 3.79182 15.375 2.91693 14.7265C2.59324 14.4865 2.31171 14.1885 2.08506 13.8459C1.69111 13.2503 1.5505 12.4973 1.50031 11.3408C1.49175 11.1433 1.66185 10.9922 1.84825 10.9922C2.88759 10.9922 3.73014 10.1003 3.73014 9C3.73014 7.89975 2.88759 7.00781 1.84825 7.00781Z" stroke="white" stroke-width="1.125" stroke-linejoin="round"/>
<path d="M6.75 2.625V15.375" stroke="white" stroke-width="1.125" stroke-linecap="round" stroke-linejoin="round"/>
</svg>
