<svg width="18" height="19" viewBox="0 0 18 19" fill="none" xmlns="http://www.w3.org/2000/svg">
<g clip-path="url(#clip0_4_711)">
<path d="M8.25001 16.1348C8.25001 16.5783 7.86556 16.9281 7.43176 16.8357C4.28016 16.1653 1.86078 13.5153 1.53694 10.2489C1.49607 9.83675 1.8358 9.5 2.25001 9.5H4.50001C4.91422 9.5 5.25001 9.83577 5.25001 10.25C5.25001 11.4927 6.25737 12.5 7.50001 12.5C7.91424 12.5 8.25001 12.8358 8.25001 13.25V16.1348Z" fill="#00BF65"/>
<path d="M12.75 14.6963C12.75 15.274 13.371 15.6226 13.8137 15.2516C14.4071 14.7545 14.9223 14.1673 15.3384 13.5111C15.628 13.0545 15.2705 12.5 14.7298 12.5H13.5C13.0858 12.5 12.75 12.8358 12.75 13.25V14.6963Z" fill="#00BF65"/>
<path d="M9 2C10.914 2 12.6605 2.71695 13.9856 3.89693C14.4474 4.3081 14.1175 5 13.4992 5H13.3906C12.2083 5 11.25 5.95837 11.25 7.14058C11.25 7.38321 11.1129 7.60502 10.8959 7.71352L10.8354 7.74377C10.6243 7.84934 10.3757 7.84934 10.1646 7.74377L10.1041 7.71352C9.8871 7.60502 9.75 7.38321 9.75 7.14058C9.75 5.95837 8.79165 5 7.60942 5H7.5C7.08579 5 6.75 4.66421 6.75 4.25V2.89391C6.75 2.56627 6.9619 2.27276 7.28088 2.19795C7.83292 2.06848 8.40847 2 9 2Z" fill="#00BF65"/>
<path d="M2.56768 7.99998C2.09352 7.99998 1.73682 7.56375 1.88755 7.11418C2.33798 5.7708 3.15835 4.5971 4.22763 3.71409C4.65464 3.36147 5.25012 3.69619 5.25012 4.24998C5.25012 5.49262 6.25748 6.49998 7.50015 6.49998H7.60957C7.96335 6.49998 8.25015 6.78677 8.25015 7.14055C8.25015 7.95134 8.70817 8.69257 9.43342 9.05512L9.49387 9.08542C10.1273 9.40214 10.8729 9.40214 11.5063 9.08542L11.5669 9.05512C12.292 8.69257 12.7501 7.95134 12.7501 7.14055C12.7501 6.78677 13.0369 6.49998 13.3907 6.49998H15.3853C15.6834 6.49998 15.9565 6.6754 16.0576 6.95584C16.344 7.75022 16.5001 8.60684 16.5001 9.49994C16.5001 9.80279 16.4821 10.1014 16.4473 10.3948C16.4052 10.7491 16.0937 10.9999 15.737 10.9999H13.5001C12.2575 10.9999 11.2501 12.0073 11.2501 13.2499V16.1061C11.2501 16.4337 11.0382 16.7272 10.7192 16.802C10.669 16.8138 10.6186 16.825 10.568 16.8358C10.1342 16.9281 9.75015 16.5783 9.75015 16.1348V13.2499C9.75015 12.0073 8.74275 10.9999 7.50015 10.9999C7.0859 10.9999 6.75012 10.6642 6.75012 10.2499C6.75012 9.00734 5.74276 7.99998 4.50012 7.99998H2.56768Z" fill="#00BF65"/>
</g>
<defs>
<clipPath id="clip0_4_711">
<rect width="18" height="18" fill="white" transform="translate(0 0.5)"/>
</clipPath>
</defs>
</svg>
