<svg width="38" height="38" viewBox="0 0 38 38" fill="none" xmlns="http://www.w3.org/2000/svg">
<g clip-path="url(#clip0_10_1608)">
<path d="M32.1299 3.63025C32.7481 3.012 33.7508 3.01213 34.3691 3.63025C34.9874 4.24859 34.9874 5.25117 34.3691 5.86951L31.5303 8.70837L32.7861 9.96326C34.2789 11.456 34.2788 13.8767 32.7861 15.3695L31.2031 16.9525C29.7104 18.4453 27.2896 18.4453 25.7969 16.9525L24.542 15.6976L21.7686 18.4701C23.0141 20.1721 23.7499 22.2708 23.75 24.5414C23.75 30.2252 19.142 34.8334 13.458 34.8334C7.77415 34.8333 3.16602 30.2253 3.16602 24.5414C3.16616 18.8576 7.77424 14.2505 13.458 14.2504C15.7285 14.2504 17.8273 14.9854 19.5293 16.2308L32.1299 3.63025ZM13.5 19.0004C10.4624 19.0004 8 21.4628 8 24.5004C8.00018 27.5378 10.4625 30.0004 13.5 30.0004C16.5375 30.0004 18.9998 27.5378 19 24.5004C19 21.4628 16.5376 19.0004 13.5 19.0004Z" fill="#A179FF"/>
</g>
<defs>
<clipPath id="clip0_10_1608">
<rect width="38" height="38" fill="white"/>
</clipPath>
</defs>
</svg>
