<svg width="18" height="19" viewBox="0 0 18 19" fill="none" xmlns="http://www.w3.org/2000/svg">
<path fill-rule="evenodd" clip-rule="evenodd" d="M6.00001 4.25V6.50311C5.62656 6.50843 5.29278 6.52281 5.00417 6.5616C4.51253 6.62771 4.04126 6.77676 3.65902 7.15901C3.27677 7.54126 3.12771 8.01252 3.06161 8.50415C2.99993 8.96292 2.99996 9.53577 3 10.2006V13.2993C2.99996 13.9642 2.99993 14.5371 3.06161 14.9958C3.12771 15.4875 3.27677 15.9588 3.65902 16.341C4.04126 16.7232 4.51253 16.8723 5.00417 16.9384C5.4629 17.0001 6.03578 17.0001 6.70063 17H11.2994C11.9642 17.0001 12.5371 17.0001 12.9959 16.9384C13.4875 16.8723 13.9588 16.7232 14.341 16.341C14.7233 15.9588 14.8723 15.4875 14.9384 14.9958C15.0001 14.5371 15.0001 13.9642 15 13.2993V10.2006C15.0001 9.53577 15.0001 8.96292 14.9384 8.50415C14.8723 8.01252 14.7233 7.54126 14.341 7.15901C13.9588 6.77676 13.4875 6.62771 12.9959 6.56161C12.7073 6.52281 12.3734 6.50843 12 6.50311V4.25C12 3.00736 10.9927 2 9.75 2H8.25C7.00737 2 6.00001 3.00736 6.00001 4.25ZM8.25 3.5C7.83578 3.5 7.5 3.83579 7.5 4.25V6.5H10.5V4.25C10.5 3.83579 10.1642 3.5 9.75 3.5H8.25ZM9 10.25C8.17155 10.25 7.5 10.9215 7.5 11.75C7.5 12.5784 8.17155 13.25 9 13.25C9.82845 13.25 10.5 12.5784 10.5 11.75C10.5 10.9215 9.82845 10.25 9 10.25Z" fill="#F8B400"/>
</svg>
