<svg width="149" height="34" viewBox="0 0 149 34" fill="none" xmlns="http://www.w3.org/2000/svg">
<mask id="mask0_4_557" style="mask-type:alpha" maskUnits="userSpaceOnUse" x="0" y="0" width="35" height="34">
<circle cx="17.231" cy="17" r="17" fill="#D9D9D9"/>
</mask>
<g mask="url(#mask0_4_557)">
<path d="M2.67517 11.1493C2.70098 11.5908 2.82689 12.0053 3.02869 12.3719L0.00231934 15.3993L0.841187 10.7489L2.67517 11.1493Z" fill="#A179FF"/>
<path d="M11.9708 0.802177C11.6946 0.995084 11.5137 1.31476 11.5137 1.67718C11.5137 1.87928 11.5704 2.06784 11.668 2.22894L6.97272 8.44476C6.55643 8.21328 6.07753 8.08051 5.56744 8.0805C4.1265 8.0805 2.93427 9.13327 2.711 10.5112L1.14557 10.2153L0.840881 9.52874L8.38776 0.762138L11.9708 0.533623V0.802177Z" fill="#8957FF"/>
<path d="M30.114 4.42181L30.4196 5.64154L24.3161 5.34662C24.3176 5.31793 24.321 5.28878 24.321 5.2597C24.3209 4.74713 24.0786 4.29189 23.7038 3.99896L25.0827 1.44818L25.5407 1.14349L30.114 4.42181Z" fill="#8957FF"/>
<path d="M24.6257 0.610214L23.1755 3.72545C23.031 3.6826 22.8779 3.65904 22.7195 3.65904C22.152 3.65913 21.6541 3.95494 21.3699 4.40025L13.6423 1.77721C13.6454 1.74438 13.6482 1.71122 13.6482 1.6776C13.6482 1.17578 13.3014 0.755511 12.8347 0.641464L12.657 -0.000137329L19.2888 -1.37221L24.6257 0.610214Z" fill="#A179FF"/>
<path d="M33.1636 8.69033L34.0024 13.2645H32.8267C32.6091 12.8394 32.2163 12.52 31.7427 12.4013L32.1724 8.38564L33.1636 8.69033Z" fill="#8957FF"/>
<path d="M34.7647 16.6186L32.8155 14.8139C32.9405 14.5792 33.0118 14.3113 33.0118 14.0268C33.0118 14.0013 33.009 13.9759 33.0079 13.9507H34.46L34.7647 16.6186Z" fill="#6E46CC"/>
<path d="M30.9532 6.40337L31.7159 7.31841L31.1299 12.3633C30.9008 12.3912 30.6862 12.4646 30.4952 12.5752L24.086 6.09283C24.099 6.07154 24.1121 6.0503 24.1241 6.02837L30.9532 6.40337Z" fill="#6E46CC"/>
<path d="M35.0688 17.9911L32.4009 27.0624L30.9146 28.2108C30.668 27.8695 30.328 27.6013 29.9302 27.4452L31.2974 15.702C31.3092 15.7023 31.3216 15.7039 31.3335 15.704C31.7561 15.704 32.1411 15.5459 32.436 15.2879L35.0688 17.9911Z" fill="#A179FF"/>
<path d="M26.947 29.8816C27.0328 30.3773 27.2831 30.8156 27.6403 31.1395L25.8454 33.0857L16.2399 34.8387L10.1413 33.0857L10.861 30.9256C10.9493 30.9407 11.0399 30.951 11.1325 30.951C11.8825 30.9509 12.5095 30.4343 12.6833 29.7381L26.947 29.8816Z" fill="#8957FF"/>
<path d="M4.69171 20.1041C4.6662 20.2086 4.65267 20.3178 4.65265 20.4302C4.65265 20.5423 4.66734 20.6512 4.69269 20.7554L0.383118 22.3365L-0.0739136 17.6861L4.69171 20.1041Z" fill="#6E46CC"/>
<path d="M3.47559 12.9792C3.91251 13.4357 4.49664 13.7464 5.15234 13.8405L5.54492 19.1452C5.27741 19.2451 5.04818 19.4248 4.88965 19.657L-0.0742188 16.9236L-0.378906 16.5427L3.47559 12.9792Z" fill="#8957FF"/>
<path d="M4.89154 21.2046C5.13866 21.5657 5.55383 21.8022 6.02435 21.8023C6.15372 21.8023 6.27873 21.783 6.3974 21.7495L10.0683 28.1558C9.73953 28.449 9.53119 28.875 9.53119 29.3501C9.5313 29.8991 9.80824 30.3831 10.2294 30.6714L9.45502 32.399L6.33002 32.5513L0.764587 22.8697L4.89154 21.2046Z" fill="#A179FF"/>
<path d="M30.0383 12.962C29.9085 13.1197 29.8079 13.3019 29.7424 13.5L18.6223 13.7852C18.5349 13.4119 18.3489 13.0769 18.0891 12.8125L22.0773 6.72563C22.274 6.81193 22.4914 6.8604 22.7199 6.8604C23.007 6.86032 23.276 6.78382 23.509 6.65141L30.0383 12.962Z" fill="#A179FF"/>
<path d="M29.657 14.0422C29.6632 14.7288 30.082 15.3169 30.6776 15.5705L29.327 27.301C29.2599 27.2948 29.1915 27.2912 29.1229 27.2912C28.6728 27.2913 28.2543 27.4264 27.9051 27.6574L18.1297 15.6525C18.4569 15.2993 18.6605 14.8324 18.6756 14.3166L29.657 14.0422Z" fill="#6E46CC"/>
<path d="M27.4963 28.0072C27.1839 28.3471 26.9749 28.7843 26.9241 29.2689L12.7151 29.1234C12.6393 28.5884 12.3005 28.1388 11.8323 27.9105L16.1819 16.265C16.3235 16.2958 16.4705 16.3138 16.6213 16.3138C16.974 16.3138 17.3059 16.225 17.5959 16.0687L27.4963 28.0072Z" fill="#A179FF"/>
<path d="M14.9382 15.4389C15.1065 15.6779 15.3243 15.8787 15.5768 16.0278L11.3513 27.7651C11.2798 27.7553 11.2067 27.7485 11.1325 27.7485C10.95 27.7485 10.7744 27.7801 10.611 27.8364L6.86688 21.5122C7.18883 21.2611 7.39716 20.8701 7.39716 20.4301C7.39713 20.3306 7.38509 20.2336 7.36493 20.1401L14.9382 15.4389Z" fill="#6E46CC"/>
<path d="M14.5776 14.019C14.5687 14.0965 14.5629 14.1753 14.5629 14.2553C14.5629 14.5094 14.6115 14.7522 14.6957 14.977L7.13422 19.6244C6.90952 19.3158 6.56034 19.1038 6.15961 19.0649L5.91156 13.852C6.92703 13.7318 7.77843 13.0871 8.19281 12.1957L14.5776 14.019Z" fill="#A179FF"/>
<path d="M21.133 5.05618C21.1245 5.12299 21.1193 5.19116 21.1193 5.26028C21.1194 5.66649 21.2713 6.03663 21.5207 6.31887L17.7033 12.5064C17.3887 12.3114 17.0186 12.1978 16.6213 12.1978C15.752 12.1978 15.0099 12.7367 14.7082 13.4986L8.39374 11.604C8.4383 11.4021 8.46405 11.1924 8.46405 10.9771C8.46391 10.1417 8.10894 9.39045 7.54315 8.86184L12.2492 2.69094C12.3537 2.7251 12.4653 2.74465 12.5812 2.74465C12.9092 2.74455 13.2019 2.59568 13.3976 2.36282L21.133 5.05618Z" fill="#6E46CC"/>
</g>
<path d="M45.295 26.5V5.86622H53.6959C57.8521 5.86622 60.5345 8.34227 60.5345 12.1448C60.5345 15.9473 57.8521 18.4528 53.6959 18.4528H49.3038V26.5H45.295ZM49.3038 15.0335H53.2832C55.2876 15.0335 56.5256 13.8839 56.5256 12.1448C56.5256 10.4056 55.2876 9.28553 53.2832 9.28553H49.3038V15.0335ZM62.5315 26.5V11.6437H66.2751V13.6481C67.1004 12.2332 68.6922 11.4079 70.6082 11.4079C71.2567 11.4079 71.7873 11.4963 72.2884 11.7321V15.2398C71.5515 14.9746 70.9619 14.9156 70.2839 14.9156C68.1321 14.9156 66.2751 16.6842 66.2751 20.8699V26.5H62.5315ZM80.6289 26.7358C76.119 26.7358 72.8471 23.5228 72.8471 19.0424C72.8471 14.5619 76.119 11.4079 80.6289 11.4079C85.1389 11.4079 88.4108 14.5619 88.4108 19.0424C88.4108 23.5523 85.1389 26.7358 80.6289 26.7358ZM80.6289 23.5523C82.9871 23.5523 84.6378 21.7248 84.6378 19.0424C84.6378 16.4189 82.9871 14.5914 80.6289 14.5914C78.2708 14.5914 76.6201 16.3894 76.6201 19.0424C76.6201 21.7248 78.2708 23.5523 80.6289 23.5523ZM98.6568 26.5L95.6501 22.0195L92.6435 26.5H88.3988L93.5278 18.895L88.6347 11.6437H92.9972L95.6796 15.6525L98.3915 11.6437H102.607L97.802 18.8065L102.96 26.5H98.6568ZM104.501 26.5V11.6437H108.245V26.5H104.501ZM106.388 9.66873C105.003 9.66873 104 8.66652 104 7.34006C104 5.98412 105.003 5.01139 106.388 5.01139C107.773 5.01139 108.805 5.98412 108.805 7.34006C108.805 8.66652 107.773 9.66873 106.388 9.66873ZM113.323 26.7063C111.996 26.7063 110.965 25.7336 110.965 24.3777C110.965 23.0217 111.996 22.049 113.323 22.049C114.649 22.049 115.681 23.0217 115.681 24.3777C115.681 25.7336 114.649 26.7063 113.323 26.7063ZM123.681 26.7358C119.938 26.7358 117.727 24.6135 117.55 21.5479H120.97C121.087 22.8154 121.883 23.8176 123.681 23.8176C124.978 23.8176 125.892 23.1691 125.892 22.1669C125.892 19.2782 117.875 21.1942 117.875 15.682C117.875 13.2944 119.849 11.4079 123.151 11.4079C126.835 11.4079 128.869 13.2944 129.164 16.0947H125.774C125.509 14.9451 124.654 14.1787 123.151 14.1787C122.09 14.1787 121.264 14.6503 121.264 15.4462C121.264 18.1581 129.4 16.1242 129.4 22.0195C129.4 24.8198 126.983 26.7358 123.681 26.7358ZM131.906 26.5V5.6304H135.649V13.5891C136.416 12.469 138.155 11.4079 140.483 11.4079C143.696 11.4079 145.996 13.4712 145.996 16.9495V26.5H142.252V17.7454C142.252 15.8294 141.102 14.6798 139.393 14.6798C137.064 14.6798 135.649 16.6547 135.649 20.0446V26.5H131.906Z" fill="white"/>
</svg>
