<svg width="18" height="19" viewBox="0 0 18 19" fill="none" xmlns="http://www.w3.org/2000/svg">
<g clip-path="url(#clip0_4_722)">
<path fill-rule="evenodd" clip-rule="evenodd" d="M1.5 9.5C1.5 5.35786 4.85786 2 9 2C13.1421 2 16.5 5.35786 16.5 9.5C16.5 13.6421 13.1421 17 9 17C4.85786 17 1.5 13.6421 1.5 9.5ZM7.87995 5.48948C8.26492 4.45011 9.735 4.45012 10.12 5.48948L10.5907 6.76045C10.6996 7.05467 10.9802 7.24996 11.2939 7.24996H12.3952C13.471 7.24996 14.0098 8.55072 13.2491 9.31152L12.0979 10.4626C11.9206 10.64 11.8436 10.8942 11.8928 11.1401L12.1696 12.5239C12.3707 13.5295 11.275 14.2904 10.403 13.7506L9.39472 13.1264C9.15285 12.9767 8.84707 12.9767 8.6052 13.1264L7.5969 13.7506C6.72496 14.2904 5.6292 13.5295 5.83031 12.5239L6.10709 11.1401C6.15627 10.8942 6.0793 10.64 5.90198 10.4626L4.71963 9.28032C3.97039 8.53107 4.50103 7.24996 5.56062 7.24996H6.70594C7.01969 7.24996 7.30028 7.05467 7.40926 6.76045L7.87995 5.48948Z" fill="#029CFF"/>
</g>
<defs>
<clipPath id="clip0_4_722">
<rect width="18" height="18" fill="white" transform="translate(0 0.5)"/>
</clipPath>
</defs>
</svg>
