<svg width="38" height="38" viewBox="0 0 38 38" fill="none" xmlns="http://www.w3.org/2000/svg">
<g clip-path="url(#clip0_10_1382)">
<path fill-rule="evenodd" clip-rule="evenodd" d="M11.4791 3.78067C13.5354 3.32369 16.03 3.16663 18.9998 3.16663C21.9697 3.16663 24.4642 3.32369 26.5205 3.78067C28.5948 4.24166 30.3188 5.02863 31.645 6.35479C32.9712 7.68096 33.7581 9.40499 34.2192 11.4792C34.6761 13.5355 34.8332 16.0301 34.8332 19C34.8332 21.9698 34.6761 24.4644 34.2192 26.5206C33.7581 28.595 32.9712 30.3189 31.645 31.6451C30.3188 32.9713 28.5948 33.7582 26.5205 34.2193C24.4642 34.6762 21.9697 34.8333 18.9998 34.8333C16.03 34.8333 13.5354 34.6762 11.4791 34.2193C9.40487 33.7582 7.68084 32.9713 6.35467 31.6451C5.0285 30.3189 4.24154 28.595 3.78055 26.5206C3.32357 24.4644 3.1665 21.9698 3.1665 19C3.1665 16.0301 3.32357 13.5355 3.78055 11.4792C4.24154 9.40499 5.0285 7.68096 6.35467 6.35479C7.68084 5.02863 9.40487 4.24166 11.4791 3.78067ZM24.8694 14.7137C25.4877 15.332 25.4877 16.3346 24.8694 16.9529L19.0383 22.784C18.1426 23.6797 16.6904 23.6797 15.7947 22.784L13.1302 20.1195C12.5119 19.5012 12.5119 18.4987 13.1302 17.8804C13.7486 17.2621 14.7511 17.2621 15.3694 17.8804L17.4165 19.9275L22.6303 14.7137C23.2486 14.0954 24.2511 14.0954 24.8694 14.7137Z" fill="#00BF65"/>
</g>
<defs>
<clipPath id="clip0_10_1382">
<rect width="38" height="38" fill="white"/>
</clipPath>
</defs>
</svg>
