<svg width="32" height="32" viewBox="0 0 32 32" fill="none" xmlns="http://www.w3.org/2000/svg">
<path fill-rule="evenodd" clip-rule="evenodd" d="M8.47936 0.780552C10.5356 0.323571 13.0302 0.166504 16.0001 0.166504C18.9699 0.166504 21.4645 0.323571 23.5208 0.780552C25.5951 1.24154 27.319 2.0285 28.6452 3.35467C29.9714 4.68084 30.7583 6.40487 31.2194 8.47911C31.6763 10.5354 31.8334 13.03 31.8334 15.9998C31.8334 18.9697 31.6763 21.4642 31.2194 23.5205C30.7583 25.5948 29.9714 27.3188 28.6452 28.645C27.319 29.9712 25.5951 30.7581 23.5208 31.2192C21.4645 31.6761 18.9699 31.8332 16.0001 31.8332C13.0302 31.8332 10.5356 31.6761 8.47936 31.2192C6.40511 30.7581 4.68108 29.9712 3.35492 28.645C2.02875 27.3188 1.24178 25.5948 0.780796 23.5205C0.323815 21.4642 0.166748 18.9697 0.166748 15.9998C0.166748 13.03 0.323815 10.5354 0.780796 8.47911C1.24178 6.40487 2.02875 4.68084 3.35492 3.35467C4.68108 2.0285 6.40511 1.24154 8.47936 0.780552ZM16.0001 6.49984C12.5023 6.49984 9.66675 9.33537 9.66675 12.8332C9.66675 16.3309 12.5023 19.1665 16.0001 19.1665C19.4978 19.1665 22.3334 16.3309 22.3334 12.8332C22.3334 9.33537 19.4978 6.49984 16.0001 6.49984ZM26.0978 24.3823C26.6564 25.2932 26.4588 26.4973 25.5585 27.0729C24.7399 27.5963 23.7834 27.9168 22.8336 28.1279C21.1177 28.5091 18.8974 28.6665 15.9998 28.6665C13.1023 28.6665 10.8819 28.5091 9.16611 28.1279C8.23409 27.9208 7.29499 27.6087 6.48632 27.1022C5.56983 26.5282 5.36836 25.3076 5.94075 24.3901C6.59988 23.3335 7.50828 22.5034 8.73071 21.9126C10.5854 21.0165 13.0166 20.7498 15.9994 20.7498C18.9722 20.7498 21.4007 20.9949 23.2529 21.8656C24.5069 22.4551 25.4323 23.2973 26.0978 24.3823Z" fill="#A179FF"/>
</svg>
